<svg width="658" height="483" viewBox="0 0 658 483" fill="none" xmlns="http://www.w3.org/2000/svg">
<path d="M182.181 135.082C182.926 135.603 183.749 135.905 184.572 135.905C185.764 135.905 186.962 135.384 187.707 134.337C189.051 132.618 188.676 130.082 186.962 128.811L135.217 89.311C133.498 87.9673 130.962 88.3423 129.691 90.0558C128.347 91.7746 128.722 94.311 130.436 95.5818L182.181 135.082Z" fill="black"/>
<path d="M226.994 97.4552C227.739 98.575 229.01 99.174 230.281 99.174C231.025 99.174 231.848 98.95 232.52 98.4292C234.312 97.1584 234.76 94.6948 233.489 92.9032L212.88 63.4086C211.609 61.6168 209.145 61.1689 207.354 62.4398C205.562 63.7107 205.114 66.1742 206.385 67.9658L226.994 97.4605V97.4552Z" fill="black"/>
<path d="M275.221 3.14849C274.773 0.981827 272.685 -0.361903 270.518 0.0859633C268.351 0.533883 267.007 2.62236 267.455 4.78903L281.939 72.065C282.314 73.9296 283.955 75.2005 285.82 75.2005C286.116 75.2005 286.34 75.2005 286.643 75.1276C288.809 74.6797 290.153 72.5912 289.705 70.4245L275.221 3.14849Z" fill="black"/>
<path d="M345.554 72.4286H345.929C347.945 72.4286 349.664 70.8608 349.888 68.8452L353.247 34.3506C353.471 32.1839 351.83 30.2464 349.664 30.0224C347.497 29.7985 345.559 31.4391 345.335 33.6058L341.976 68.1004C341.752 70.2671 343.393 72.2046 345.559 72.4286H345.554Z" fill="black"/>
<path d="M401.861 91.4818C402.46 91.7787 403.132 91.9297 403.725 91.9297C405.142 91.9297 406.486 91.1849 407.236 89.8412L440.09 28.0918C441.137 26.1492 440.387 23.7637 438.45 22.7169C436.507 21.67 434.122 22.42 433.075 24.3576L400.148 86.1069C399.101 88.0496 399.851 90.4351 401.789 91.4819L401.861 91.4818Z" fill="black"/>
<path d="M243.714 392.602C241.772 391.555 239.386 392.305 238.339 394.242L206.605 454.873C205.558 456.816 206.308 459.201 208.245 460.248C208.844 460.545 209.438 460.696 210.11 460.696C211.526 460.696 212.948 459.951 213.62 458.607L245.355 397.977C246.402 396.034 245.652 393.649 243.714 392.602Z" fill="black"/>
<path d="M300.754 410.535C298.588 410.311 296.65 411.879 296.348 414.046L292.468 449.66C292.244 451.827 293.811 453.764 295.978 454.067H296.426C298.442 454.067 300.16 452.572 300.384 450.556L304.265 414.941C304.489 412.775 302.921 410.837 300.754 410.535Z" fill="black"/>
<path d="M360.194 410.602C358.028 411.05 356.684 413.138 357.059 415.232L370.048 479.743C370.423 481.607 372.064 482.951 373.929 482.951C374.153 482.951 374.449 482.951 374.673 482.878C376.84 482.43 378.184 480.342 377.809 478.248L364.819 413.737C364.371 411.571 362.283 410.227 360.189 410.602L360.194 410.602Z" fill="black"/>
<path d="M420.448 386.108C419.255 384.317 416.791 383.796 414.922 384.989C413.057 386.181 412.609 388.645 413.802 390.515L433.812 420.531C434.557 421.65 435.828 422.322 437.099 422.322C437.844 422.322 438.594 422.098 439.265 421.651C441.057 420.458 441.578 417.994 440.385 416.125L420.375 386.109L420.448 386.108Z" fill="black"/>
<path d="M462.408 347.429C460.689 346.085 458.225 346.382 456.809 348.1C455.465 349.819 455.762 352.283 457.481 353.699L510.866 395.959C511.611 396.558 512.434 396.782 513.329 396.782C514.522 396.782 515.642 396.261 516.465 395.287C517.809 393.569 517.512 391.105 515.793 389.689L462.408 347.429Z" fill="black"/>
<path d="M481.594 170.695C475.995 169.726 470.245 169.726 464.568 170.695L438.432 175.023C437.239 175.247 436.416 176.367 436.64 177.56C436.791 178.528 437.536 179.2 438.432 179.351H439.176L465.312 175.023C470.463 174.2 475.693 174.2 480.843 175.023C482.036 175.247 483.156 174.424 483.379 173.232C483.603 172.039 482.78 170.919 481.588 170.695H481.594Z" fill="black"/>
<path d="M492.874 174.055C491.754 173.607 490.483 174.055 489.963 175.248C489.515 176.368 489.963 177.639 491.155 178.159C496.385 180.399 501.088 183.461 505.119 187.42C505.416 187.717 505.864 187.941 506.239 188.019C506.911 188.17 507.656 187.946 508.182 187.347C509.005 186.451 509.005 185.107 508.182 184.211C503.703 179.956 498.552 176.519 492.875 174.133L492.874 174.055Z" fill="black"/>
<path d="M415.141 170.842L400.953 172.93C399.76 173.081 398.937 174.201 399.088 175.467C399.239 176.435 399.984 177.186 400.88 177.331H401.552L415.74 175.243C416.933 175.092 417.756 173.972 417.604 172.779C417.453 171.586 416.334 170.764 415.141 170.915L415.141 170.842Z" fill="black"/>
<path d="M201.821 213.255L175.764 217.734C170.086 218.703 164.711 220.573 159.712 223.333C158.665 223.932 158.295 225.276 158.816 226.318C159.415 227.365 160.758 227.812 161.8 227.214C166.352 224.677 171.284 222.958 176.508 222.062L202.565 217.583C202.565 217.583 203.013 217.432 203.237 217.359C204.06 216.911 204.508 216.016 204.357 215.047C204.133 213.854 203.014 213.031 201.821 213.255Z" fill="black"/>
<path d="M150.154 230.055C145.602 234.237 141.79 239.092 138.956 244.618C138.435 245.665 138.805 247.008 139.925 247.602C140.597 247.977 141.342 247.899 142.014 247.602C142.389 247.378 142.685 247.081 142.909 246.706C145.524 241.701 148.956 237.222 153.139 233.415C154.034 232.592 154.107 231.175 153.29 230.279C152.467 229.383 151.05 229.31 150.154 230.128V230.055Z" fill="black"/>
<path d="M236.688 199.068L222.573 201.683C221.38 201.907 220.557 203.027 220.781 204.219C221.005 205.412 222.125 206.235 223.318 206.011L237.432 203.397C237.432 203.397 237.88 203.246 238.104 203.173C238.927 202.725 239.375 201.829 239.224 200.86C239 199.667 237.88 198.845 236.688 199.068Z" fill="black"/>
<path d="M270.594 307.042L265.964 279.864L256.928 226.703L252.599 201.318L251.329 193.849C250.73 190.417 248.865 187.427 246.026 185.412C244.61 184.443 243.115 183.771 241.474 183.396C239.755 183.021 238.042 182.948 236.245 183.245L218.25 186.307C216.834 186.531 215.412 187.052 214.146 187.724C213.849 187.875 213.625 188.021 213.323 188.245C211.157 189.662 209.443 191.677 208.469 193.995C207.573 193.844 206.678 193.844 205.709 193.995L173.302 199.521C165.761 200.792 158.594 203.328 151.948 206.912C137.76 214.677 127.156 226.994 121.333 241.333C119.317 246.338 117.822 251.635 117.078 257.088C115.807 256.64 114.463 256.489 113.046 256.713L92.5878 260.223C91.6919 260.374 90.869 260.671 90.1242 261.119C89.0773 261.718 88.1815 262.463 87.4367 263.509C86.244 265.228 85.7179 267.317 86.093 269.411L86.3169 270.905C67.1289 274.338 33.6036 281.208 10.2343 290.619L7.99467 291.515C5.53107 292.561 2.8436 293.603 0.00506592 294.723V303.233C3.88533 301.738 7.54667 300.249 10.9791 298.905L13.2187 298.009C35.844 288.827 68.6973 282.103 87.6613 278.744L89.6769 290.468C71.0836 293.827 39.1303 300.322 17.6983 308.984L15.4587 309.88C10.8284 311.744 5.60453 313.838 0 315.927V324.364C6.7188 321.973 12.9167 319.51 18.4427 317.27L20.6823 316.375C41.4369 308.01 72.7236 301.588 91.0209 298.307L91.4689 300.921C92.2137 305.249 96.2501 308.088 100.578 307.416L121.037 303.905C121.933 303.754 122.756 303.458 123.5 303.01C124.245 302.635 124.917 302.114 125.516 301.442C130.37 309.879 137.016 317.197 145.152 322.947C160.084 333.551 178.231 337.655 196.225 334.593L228.632 329.067C229.528 328.916 230.351 328.619 231.096 328.171C231.247 328.171 231.32 328.02 231.471 327.947C234.382 330.859 238.564 332.354 242.893 331.604L260.887 328.541C262.304 328.317 263.726 327.796 264.991 327.124C269.845 324.437 272.533 318.984 271.564 313.463L270.517 307.265L270.594 307.042ZM119.768 295.766L99.3089 299.276L97.2203 287.104L93.9339 267.839L114.393 264.329L119.768 295.839V295.766ZM195.033 326.526C162.028 332.125 130.82 309.947 125.148 277.02C124.627 273.812 124.325 270.526 124.252 267.39C124.028 244.844 136.424 224.308 155.762 213.702C161.512 210.567 167.856 208.327 174.653 207.129L207.06 201.603L227.366 320.994L194.96 326.52L195.033 326.526ZM261.262 319.953C260.814 320.25 260.215 320.401 259.694 320.474L241.7 323.536C238.939 323.984 236.247 322.12 235.799 319.354L232.591 300.39L215.492 199.89C215.117 197.65 216.237 195.562 218.106 194.515C218.627 194.218 219.153 194.067 219.674 193.994L237.669 190.932C240.429 190.484 243.044 192.275 243.57 194.963V195.114L263.955 314.583C264.33 316.823 263.21 318.911 261.341 319.958L261.262 319.953Z" fill="black"/>
<path d="M657.141 166.442V157.333C654.381 158.827 651.615 160.395 648.854 162.114C624.365 177.42 582.849 186.978 566.198 190.411V190.036C565.823 187.948 564.631 186.078 562.912 184.885C561.943 184.213 560.824 183.692 559.626 183.541C558.803 183.39 557.907 183.39 557.011 183.541L536.553 186.901C535.136 187.125 533.938 187.724 532.896 188.541C530.36 183.687 527.297 179.135 523.714 175.104C513.558 163.458 499.521 155.317 483.542 152.557C476.073 151.286 468.459 151.286 460.917 152.557L428.51 157.932C427.541 158.083 426.718 158.38 425.895 158.828C424.177 156.963 421.937 155.62 419.401 155.021C419.104 154.948 418.802 154.87 418.505 154.797C417.088 154.573 415.593 154.573 414.177 154.797L396.182 157.781C394.39 158.078 392.75 158.677 391.328 159.646C389.911 160.541 388.713 161.661 387.745 163.078C385.729 165.916 384.906 169.349 385.505 172.786L386.776 180.255L337.645 188.318C330.624 189.437 325.848 196.083 327.041 203.104C327.713 207.359 330.551 210.87 334.286 212.662C335.333 213.109 336.452 213.484 337.572 213.708C338.989 213.932 340.411 213.932 341.827 213.708L390.885 205.646L399.619 258.807L350.488 266.87C343.468 267.99 338.691 274.635 339.884 281.656C340.556 285.912 343.317 289.422 347.129 291.214C348.176 291.662 349.296 292.037 350.415 292.261C351.832 292.485 353.254 292.485 354.671 292.261L403.728 284.198L405.072 292.261C405.968 297.787 410.301 302.115 415.749 303.011C417.165 303.235 418.66 303.235 420.077 303.011L438.072 300.026C442.4 299.281 445.91 296.516 447.702 292.86C447.853 292.86 447.999 292.86 448.15 292.932C448.973 293.083 449.869 293.083 450.764 292.932L483.171 287.558C501.239 284.573 516.994 274.792 527.671 259.855C533.494 251.714 537.379 242.604 539.244 233.126C539.989 233.501 540.812 233.797 541.635 233.948C542.458 234.099 543.353 234.099 544.249 233.948L564.708 230.589C569.036 229.844 571.953 225.808 571.203 221.48L570.604 217.745C587.104 214.459 628.098 205.126 657.068 189.297V180.188C629.218 196.688 586.432 206.548 569.333 209.907L567.39 198.183C584.265 194.75 627.27 184.891 652.958 168.839C654.302 168.016 655.646 167.271 657.062 166.448L657.141 166.442ZM389.901 200.343L340.844 208.406C340.021 208.557 339.125 208.557 338.307 208.406C336.666 208.109 335.172 207.286 334.052 206.093C333.083 205.046 332.333 203.703 332.109 202.135C331.437 198.031 334.198 194.072 338.38 193.4L387.511 185.338L389.974 200.349L389.901 200.343ZM402.89 278.969L353.833 287.031C353.01 287.182 352.114 287.182 351.297 287.031C349.656 286.734 348.161 285.911 347.042 284.719C346.073 283.672 345.323 282.328 345.099 280.76C344.427 276.656 347.187 272.698 351.37 272.026L400.5 263.963L402.964 278.974L402.89 278.969ZM436.864 292.182L418.869 295.167C418.27 295.239 417.749 295.239 417.15 295.167C415.062 294.792 413.343 293.151 412.968 290.911L393.255 171.37V171.219C392.88 168.459 394.75 165.917 397.51 165.469L415.505 162.485C416.104 162.412 416.624 162.412 417.223 162.485C419.312 162.86 421.031 164.5 421.406 166.74L437.984 267.318L441.12 286.282C441.568 289.043 439.703 291.735 436.865 292.183L436.864 292.182ZM481.962 279.786L449.556 285.161L429.843 165.692L462.249 160.317C469.046 159.197 475.765 159.27 482.26 160.317C503.989 163.973 522.353 179.432 529.525 200.786C530.572 203.849 531.317 206.984 531.838 210.193C537.291 243.198 514.963 274.333 481.963 279.781L481.962 279.786ZM543.113 226.177L537.884 194.666L558.343 191.307L561.551 210.572L563.566 222.817L543.108 226.176L543.113 226.177Z" fill="black"/>
</svg>
